<svg width="50" height="50" viewBox="0 0 50 50" fill="none" xmlns="http://www.w3.org/2000/svg">
<path d="M49.0512 15.5961L26.1997 0.361636C25.4197 -0.118346 24.5873 -0.12274 23.8001 0.361636L0.948631 15.5961C0.362695 15.9866 0 16.6842 0 17.3817V32.616C0 33.3136 0.362695 34.0112 0.948729 34.4018L23.8002 49.6384C24.5802 50.1183 25.4126 50.1227 26.1998 49.6384L49.0513 34.4018C49.6372 34.0113 50 33.3136 50 32.616V17.3817C49.9999 16.6842 49.6372 15.9866 49.0512 15.5961ZM27.1484 6.16507L43.9732 17.3817L36.4676 22.4041L27.1484 16.1819V6.16507ZM22.8515 6.16507V16.1819L13.5323 22.4041L6.02675 17.3817L22.8515 6.16507ZM4.29687 21.3996L9.68192 24.9989L4.29687 28.5983V21.3996ZM22.8515 43.8328L6.02675 32.6161L13.5323 27.5938L22.8515 33.8159V43.8328ZM25 30.0771L17.4106 24.9989L25 19.9208L32.5893 24.9989L25 30.0771ZM27.1484 43.8328V33.8159L36.4676 27.5938L43.9732 32.6161L27.1484 43.8328ZM45.703 28.5983L40.318 24.9989L45.703 21.3996V28.5983Z" fill="#DACCBA"/>
</svg>
