<svg width="49" height="95" viewBox="0 0 49 95" fill="none" xmlns="http://www.w3.org/2000/svg">
<path fill-rule="evenodd" clip-rule="evenodd" d="M48.7946 42.1319C48.4552 38.3044 47.4226 34.6136 45.9865 30.9979C43.0115 22.9242 38.2372 15.779 31.5123 9.63105C29.812 8.07608 27.921 6.65136 26.7352 4.71604C25.985 3.49188 25.2706 2.25095 24.5397 1.0172L24.0766 0C23.9987 0.233325 23.9491 0.316427 23.9464 0.400328C23.8868 2.41156 22.579 3.77555 20.9503 5.04845C19.1189 6.48116 17.4141 8.03613 15.6542 9.53755C13.8494 11.6055 12.0455 13.6735 10.2425 15.7406C8.78254 18.0779 7.32439 20.4151 5.86624 22.7524L2.94077 29.6379L2.85273 29.7449C1.24234 34.3539 0.448154 39.0923 0.0574799 43.8787C-0.0892522 45.6773 0.077654 47.5024 0.194123 49.3107C0.360113 51.8956 0.875512 54.4366 1.64861 56.9377C4.45669 66.0246 10.1554 73.5621 17.946 79.9657C19.394 81.1555 20.8797 82.2374 22.391 83.3697C22.6496 82.5986 22.856 81.8275 23.0908 81.0564C23.3255 80.2885 23.5631 79.5246 23.7217 78.7544C23.5621 79.5246 23.3833 80.2885 23.2063 81.0564L22.4488 83.3697L23.1256 85.3682L23.7529 88.4717L24.0519 91.7103C24.0491 92.3679 24.0188 93.0271 24.0647 93.6839C24.0757 93.8518 24.3288 94.0068 24.47 94.1682L25.7319 94.5541L27.047 95L26.8214 92.121L26.8113 89.2859L27.2653 84.967L27.5945 84.0265L28.5364 82.5723C29.6992 81.7572 30.9473 81.0173 32.0066 80.1104C33.9233 78.4691 35.8354 76.8071 37.5503 75.01C39.776 72.6791 41.6909 70.1349 43.2279 67.4061C44.2569 65.5811 45.2253 63.7193 46.0268 61.8119C46.733 60.1307 47.1704 58.364 47.7271 56.6348C47.7766 56.5102 47.8426 56.3879 47.8738 56.2609C49.0238 51.5936 49.2173 46.8791 48.7946 42.1319V42.1319ZM27.1525 81.5854L26.4142 80.1767L27.1525 81.5854L28.2374 82.3925L27.1525 81.5854Z" fill="#D38A20"/>
</svg>
