<svg width="132" height="88" viewBox="0 0 132 88" fill="none" xmlns="http://www.w3.org/2000/svg">
<path d="M65.2369 88C64.8037 88 64.3706 87.8653 63.9788 87.6408L60.0187 85.0815C59.4206 84.7223 59.7094 84.5876 59.9156 84.5203C60.6994 84.2284 60.8644 84.1611 61.71 83.6223C61.7925 83.5774 61.9163 83.5998 61.9988 83.6447L65.0512 85.6203C65.1544 85.6877 65.3194 85.6877 65.4225 85.6203L77.3437 78.1221C77.4469 78.0547 77.5294 77.92 77.5294 77.7629V62.7889C77.5294 62.6317 77.4675 62.497 77.3437 62.4297L65.4225 54.9539C65.3194 54.8865 65.175 54.8865 65.0512 54.9539L53.13 62.4297C53.0063 62.497 52.9444 62.6542 52.9444 62.7889V77.7629C52.9444 77.8976 53.0269 78.0323 53.13 78.0996L56.3887 80.1426C58.1625 81.1079 59.2556 79.963 59.2556 78.8405V64.046C59.2556 63.844 59.4 63.6644 59.6062 63.6644H61.1119C61.2975 63.6644 61.4625 63.8215 61.4625 64.046V78.8405C61.4625 81.4222 60.1837 82.8814 57.9356 82.8814C57.255 82.8814 56.6981 82.8814 55.1925 82.0732L52.0575 80.1201C51.2944 79.6262 50.7994 78.7282 50.7994 77.7629V62.7889C50.7994 61.8235 51.2737 60.9031 52.0575 60.4316L63.9788 52.9334C64.7419 52.4619 65.7319 52.4619 66.4744 52.9334L78.3956 60.4316C79.1588 60.9255 79.6538 61.8235 79.6538 62.7889V77.7629C79.6538 78.7282 79.1794 79.6487 78.3956 80.1201L66.4744 87.6183C66.1237 87.8653 65.6906 88 65.2369 88V88ZM74.8687 73.228C74.8687 70.4218 73.1362 69.681 69.465 69.1422C65.7525 68.6034 65.3812 68.334 65.3812 67.3911C65.3812 66.6053 65.6906 65.5726 68.4337 65.5726C70.8881 65.5726 71.7956 66.1563 72.1669 67.9523C72.2081 68.1319 72.3319 68.2442 72.4969 68.2442H74.0437C74.1469 68.2442 74.2294 68.1993 74.2913 68.1319C74.3531 68.0421 74.3944 67.9523 74.3738 67.8401C74.1263 64.742 72.2494 63.3052 68.4337 63.3052C65.0306 63.3052 63.0094 64.8767 63.0094 67.4809C63.0094 70.332 65.0306 71.0953 68.2894 71.4545C72.1875 71.881 72.4969 72.4872 72.4969 73.3178C72.4969 74.7771 71.4244 75.3832 68.9081 75.3832C65.7525 75.3832 65.0512 74.5301 64.8244 72.8239C64.8037 72.6443 64.6594 72.5096 64.4738 72.5096H62.9269C62.7413 72.5096 62.5762 72.6668 62.5762 72.8913C62.5762 75.0689 63.6694 77.6731 68.8875 77.6731C72.7031 77.6731 74.8687 76.0567 74.8687 73.228V73.228ZM86.1094 61.9807C86.1094 63.3501 85.0781 64.4726 83.82 64.4726C82.5619 64.4726 81.5306 63.3501 81.5306 61.9807C81.5306 60.5663 82.6031 59.4887 83.82 59.4887C85.0575 59.4663 86.1094 60.5663 86.1094 61.9807ZM85.7381 61.9807C85.7381 60.8133 84.8719 59.8928 83.7994 59.8928C82.7475 59.8928 81.8812 60.8133 81.8812 61.9807C81.8812 63.1481 82.7475 64.0909 83.7994 64.0909C84.8719 64.0685 85.7381 63.1256 85.7381 61.9807ZM84.81 63.3726H84.2738C84.2531 63.2379 84.1706 62.5195 84.1706 62.497C84.1294 62.3399 84.0881 62.2501 83.9025 62.2501H83.4488V63.3726H82.9538V60.5663H83.8406C84.15 60.5663 84.7481 60.5663 84.7481 61.3072C84.7481 61.8235 84.4387 61.9358 84.2531 62.0031C84.6037 62.0256 84.6244 62.2725 84.6863 62.6317C84.7069 62.8562 84.7481 63.2379 84.81 63.3726V63.3726ZM84.2325 61.397C84.2325 61.0153 83.985 61.0153 83.8613 61.0153H83.4488V61.8011H83.8406C84.1706 61.8011 84.2325 61.5541 84.2325 61.397V61.397ZM28.3181 29.406C28.3181 28.7998 28.0294 28.2611 27.555 27.9692L14.9119 20.0444C14.7056 19.9097 14.4581 19.8424 14.2106 19.8199H14.0869C13.8394 19.8199 13.6125 19.9097 13.3856 20.0444L0.763125 27.9692C0.28875 28.2611 0 28.8223 0 29.406L0.020625 50.7333C0.020625 51.0252 0.165 51.2946 0.391875 51.4517C0.61875 51.6089 0.9075 51.6089 1.155 51.4517L8.6625 46.7597C9.13687 46.4454 9.42563 45.9066 9.42563 45.3229V35.3552C9.42563 34.7715 9.71438 34.2103 10.1888 33.9184L13.3856 31.9204C13.6331 31.7632 13.8806 31.6959 14.1487 31.6959C14.4169 31.6959 14.685 31.7632 14.9119 31.9204L18.1088 33.9184C18.5831 34.2103 18.8719 34.7715 18.8719 35.3552V45.3229C18.8719 45.9066 19.1606 46.4678 19.635 46.7597L27.1425 51.4517C27.3694 51.6089 27.6788 51.6089 27.9056 51.4517C28.1325 51.317 28.2769 51.0252 28.2769 50.7333L28.3181 29.406ZM97.4531 6.12554V45.727C97.4531 46.3107 97.1644 46.8719 96.69 47.1638L84.0469 55.111C83.5725 55.4029 82.995 55.4029 82.5206 55.111L69.8775 47.1638C69.4031 46.8719 69.1144 46.3107 69.1144 45.727V29.8325C69.1144 29.2488 69.4031 28.6876 69.8775 28.3957L82.5206 20.4485C82.995 20.1567 83.5725 20.1567 84.0469 20.4485L87.2025 22.4241C87.5531 22.6486 88.0069 22.3567 88.0069 21.9302V0.827383C88.0069 0.198788 88.6256 -0.205309 89.1413 0.108989L96.6694 4.68875C97.1438 4.95815 97.4531 5.51939 97.4531 6.12554V6.12554ZM87.9656 35.0633C87.9656 34.9062 87.8831 34.7715 87.78 34.7041L83.4488 31.9653C83.325 31.8979 83.1806 31.8979 83.0569 31.9653L78.7256 34.7041C78.6019 34.7715 78.54 34.9062 78.54 35.0633V40.5186C78.54 40.6758 78.6225 40.8105 78.7256 40.8778L83.0569 43.5943C83.1806 43.6616 83.325 43.6616 83.4281 43.5943L87.7594 40.8778C87.8831 40.8105 87.945 40.6758 87.945 40.5186V35.0633H87.9656ZM131.237 34.9062C131.711 34.6143 132 34.0531 132 33.4694V29.6305C132 29.0468 131.711 28.4856 131.237 28.1937L118.676 20.2465C118.202 19.9546 117.624 19.9546 117.15 20.2465L104.507 28.1937C104.033 28.4856 103.744 29.0468 103.744 29.6305V45.525C103.744 46.1311 104.033 46.6699 104.507 46.9617L117.067 54.7518C117.521 55.0437 118.099 55.0437 118.573 54.7518L126.163 50.1496C126.679 49.8353 126.679 49.0271 126.163 48.7128L113.437 40.7656C113.19 40.6084 113.046 40.339 113.046 40.0472V35.0633C113.046 34.7715 113.19 34.5021 113.437 34.3449L117.398 31.853C117.624 31.6959 117.934 31.6959 118.161 31.853L122.121 34.3449C122.347 34.5021 122.512 34.7715 122.512 35.0633V38.9696C122.512 39.5982 123.152 40.0023 123.667 39.688L131.237 34.9062V34.9062ZM115.294 35.6919C115.211 35.7593 115.149 35.8491 115.149 35.9613V39.0145C115.149 39.1268 115.211 39.239 115.294 39.2839L117.727 40.8105C117.81 40.8778 117.934 40.8778 118.016 40.8105L120.45 39.2839C120.532 39.2166 120.594 39.1268 120.594 39.0145V35.9613C120.594 35.8491 120.532 35.7368 120.45 35.6919L118.016 34.1654C117.934 34.098 117.81 34.098 117.727 34.1654L115.294 35.6919ZM62.865 45.4576V29.6529C62.865 29.0692 62.535 28.508 62.0606 28.2162L49.4587 20.3138C49.0256 20.0444 48.4275 19.9995 47.9325 20.3138L35.3306 28.2162C34.8563 28.508 34.5262 29.0468 34.5262 29.6529V45.4576C34.5262 46.0862 34.9181 46.625 35.3512 46.8944L47.9738 54.7967C48.4688 55.111 49.0462 55.0886 49.5 54.7967L62.0812 46.8944C62.4525 46.6699 62.7206 46.2883 62.8238 45.8393C62.8444 45.727 62.865 45.5923 62.865 45.4576ZM47.5406 17.4178L47.3756 17.53H47.6025L47.5406 17.4178V17.4178ZM63.2569 46.6474L63.1744 46.4903V46.6923L63.2569 46.6474Z" fill="#D38A20"/>
</svg>
