<svg width="60" height="60" viewBox="0 0 60 60" fill="none" xmlns="http://www.w3.org/2000/svg">
<path fill-rule="evenodd" clip-rule="evenodd" d="M52.1036 5.96042C46.1978 3.03509 40.1487 2.73736 33.9555 4.93512C28.2562 6.95754 23.71 10.5764 20.3303 15.5052C14.6117 23.8455 10.4579 32.946 8.13009 42.8317C6.93789 47.8912 6.16567 53.2576 6.37324 58.4827C6.39017 58.9067 6.45307 59.0286 6.49469 60H35.7026C35.6189 59.0286 35.5638 59.3123 35.4912 59.1272C33.955 55.1902 32.7386 51.0327 31.8972 46.8887C30.6885 40.9385 30.0556 34.878 31.304 28.8729C33.0511 20.4642 37.8262 14.3969 45.876 11.2506C50.4358 9.46954 54.7638 9.97612 58.5596 13.3206C58.5944 13.3512 58.666 13.3327 58.7589 13.3478L60 11.4619C57.6098 9.17764 54.9835 7.38738 52.1036 5.96042V5.96042ZM0.648356 44.6492C0.425786 46.5546 0.217731 48.3385 0 50.2109L5.38619 50.8598L6.37276 45.0834C4.41075 44.9343 2.54746 44.793 0.648356 44.6492V44.6492ZM11.2204 28.0453L6.15406 26.0554L4.51672 30.7215L9.67985 32.3826C10.2024 30.9104 10.694 29.5257 11.2204 28.0453V28.0453ZM35.1317 54.1071C36.8614 54.2363 38.5946 54.3252 40.5038 54.4369C39.8105 52.99 39.1946 51.6815 38.5496 50.3886C38.4789 50.2483 38.2404 50.1128 38.0783 50.1103C36.6108 50.089 35.1423 50.0982 33.5829 50.0982C33.9342 51.3746 34.2395 52.5524 34.597 53.7132C34.6507 53.8885 34.9391 54.093 35.1317 54.1071V54.1071ZM19.8073 13.9093L15.9583 11.3506C14.9267 12.508 13.9319 13.6237 12.8815 14.8015L16.8384 17.4708L19.8073 13.9093ZM32.0651 39.8302C32.0588 39.9861 32.1986 40.2343 32.335 40.2959C33.7213 40.9215 35.122 41.5175 36.6471 42.177C36.5837 40.9667 36.5411 39.955 36.469 38.9452C36.456 38.7636 36.3708 38.5023 36.2368 38.4275C34.9638 37.7203 33.6729 37.0447 32.2615 36.2929C32.1846 37.5872 32.1062 38.7077 32.0651 39.8302V39.8302ZM30.9246 4.77678L28.2896 1.77472L24.6612 3.66795C25.5689 4.77824 26.4258 5.82588 27.3006 6.89489L30.9246 4.77678ZM32.577 28.6612C32.4981 28.8428 32.6021 29.228 32.7574 29.3684C33.8098 30.3213 34.898 31.2334 36.1086 32.2733C36.3858 31.1076 36.6471 30.0687 36.8687 29.0225C36.9079 28.8365 36.8532 28.5291 36.7245 28.4251C35.7829 27.6631 34.8109 26.9375 33.8035 26.1662C33.3608 27.0477 32.9316 27.8384 32.577 28.6612ZM38.6009 3.19926C39.946 3.23568 41.2925 3.21965 42.7131 3.21965C42.5713 2.2269 42.5036 1.47456 42.3347 0.746509C42.2844 0.52989 41.9597 0.241389 41.7406 0.222933C40.3921 0.113166 39.0383 0.0709111 37.5548 0C37.7527 1.00198 37.9036 1.88497 38.117 2.7529C38.162 2.93698 38.4301 3.1944 38.6009 3.19926V3.19926ZM40.2387 20.5263C40.3074 20.3971 40.3248 20.1625 40.2527 20.0499C39.5918 19.0119 38.9052 17.99 38.1944 16.9147L35.8913 19.0382L39.076 22.5808C39.5037 21.8333 39.8865 21.1878 40.2387 20.5263V20.5263ZM42.7233 13.4707L44.0988 16.0356C46.2515 14.8515 46.4576 14.4231 45.6955 12.7164L42.7233 13.4707V13.4707ZM53.0229 5.56701C53.9185 6.12167 54.8644 6.59424 55.8254 7.11393L56.4689 6.10855C55.297 5.24839 54.1658 4.4164 52.8821 3.47319C52.8318 4.00939 52.7568 4.38386 52.7762 4.75396C52.7916 5.03614 52.8386 5.45335 53.0229 5.56701V5.56701ZM51.7736 13.6873C52.7413 13.7927 54.1929 13.8932 55.1606 13.9996V12.6795C54.1929 12.4667 52.7413 12.256 51.7736 12.0369V13.6873Z" fill="#D38A20"/>
</svg>
