<svg width="65" height="60" viewBox="0 0 65 60" fill="none" xmlns="http://www.w3.org/2000/svg">
<path d="M53.0918 19.4437C52.4063 19.2027 51.7207 18.975 51.0352 18.7607C51.1494 18.2652 51.251 17.7697 51.3525 17.2742C52.9141 9.29247 51.8857 2.87764 48.4199 0.761677C45.0811 -1.26054 39.6348 0.84203 34.125 5.90426C33.5791 6.39977 33.0459 6.92206 32.5381 7.44436C32.1953 7.09616 31.8398 6.74796 31.4844 6.41316C25.708 1.00274 19.9189 -1.27393 16.4531 0.855422C13.127 2.89103 12.1367 8.93088 13.5332 16.4841C13.6729 17.234 13.8252 17.9706 14.0029 18.7205C13.1904 18.9616 12.3906 19.2294 11.6416 19.5107C4.8623 21.9882 0 25.8987 0 29.9432C0 34.1215 5.17969 38.3132 12.2256 40.8577C12.7969 41.0586 13.3682 41.2595 13.9521 41.4336C13.7617 42.2371 13.5967 43.0273 13.4443 43.8442C12.1113 51.2768 13.1523 57.1694 16.4785 59.1916C19.9063 61.2808 25.6699 59.138 31.2812 53.9553C31.7256 53.5401 32.1699 53.1116 32.6143 52.6562C33.1729 53.2321 33.7568 53.7812 34.3408 54.3169C39.7744 59.2452 45.1445 61.2406 48.458 59.2184C51.8857 57.1292 53.0029 50.7947 51.5557 43.0808C51.4414 42.4916 51.3145 41.8889 51.1748 41.2729C51.5811 41.1524 51.9746 41.0185 52.3682 40.8845C59.6934 38.3266 65 34.1885 65 29.9432C65 25.8853 59.998 21.948 53.0918 19.4437V19.4437ZM35.915 8.07379C40.6377 3.73473 45.043 2.03393 47.0488 3.25262C49.1943 4.55165 50.0195 9.80137 48.6738 16.6983C48.585 17.1537 48.4961 17.5956 48.3818 18.0375C45.5635 17.3679 42.707 16.8858 39.8379 16.618C38.1875 14.127 36.3848 11.7432 34.4297 9.50675C34.9248 9.01124 35.4072 8.54251 35.915 8.07379V8.07379ZM19.4111 33.3983C19.9951 34.5768 20.5918 35.7419 21.2266 36.8937C21.874 38.0588 22.5342 39.2239 23.2324 40.3622C21.252 40.1346 19.2842 39.7998 17.3418 39.3578C17.9004 37.4294 18.5986 35.4339 19.4111 33.3983V33.3983ZM19.4111 26.6219C18.6113 24.6265 17.9385 22.6712 17.3799 20.7829C19.208 20.3544 21.1504 20.0062 23.1689 19.7383C22.4961 20.8499 21.8359 21.9882 21.2139 23.1399C20.5918 24.2783 19.9824 25.4434 19.4111 26.6219ZM20.8584 30.0101C21.6963 28.162 22.6104 26.3541 23.5752 24.5729C24.54 22.7917 25.5811 21.0642 26.6729 19.3634C28.5771 19.216 30.5195 19.1357 32.5 19.1357C34.4805 19.1357 36.4355 19.216 38.3271 19.3634C39.4062 21.0508 40.4346 22.7784 41.4121 24.5461C42.3896 26.3139 43.3037 28.1218 44.167 29.9565C43.3164 31.8047 42.4023 33.626 41.4248 35.4205C40.46 37.2017 39.4316 38.9293 38.3525 40.6435C36.4609 40.7908 34.4932 40.8577 32.5 40.8577C30.5068 40.8577 28.5771 40.7908 26.7109 40.6703C25.6064 38.9695 24.5654 37.2285 23.5879 35.4473C22.6104 33.6662 21.709 31.8582 20.8584 30.0101ZM43.7861 36.8669C44.4336 35.6884 45.043 34.4965 45.6396 33.2912C46.4521 35.233 47.1631 37.2017 47.7852 39.2239C45.8174 39.6926 43.8242 40.0542 41.8184 40.2953C42.5039 39.1703 43.1514 38.0186 43.7861 36.8669ZM45.6143 26.6219C45.0176 25.4434 44.4082 24.2649 43.7734 23.1132C43.1514 21.9748 42.5039 20.8499 41.8311 19.7383C43.875 20.0062 45.8301 20.3678 47.6582 20.8097C47.0742 22.7917 46.3887 24.7202 45.6143 26.6219V26.6219ZM32.5254 11.5557C33.8584 13.0824 35.1152 14.6895 36.2832 16.3501C33.7695 16.2296 31.2432 16.2296 28.7295 16.3501C29.9736 14.6225 31.2559 13.0155 32.5254 11.5557ZM17.7988 3.34636C19.9316 2.03393 24.667 3.90883 29.6563 8.5693C29.9736 8.86392 30.291 9.18533 30.6211 9.50675C28.6533 11.7432 26.8379 14.127 25.1748 16.618C22.3057 16.8858 19.4619 17.3545 16.6436 18.0108C16.4785 17.3278 16.3389 16.6314 16.1992 15.935C15.0059 9.45318 15.793 4.56505 17.7988 3.34636V3.34636ZM14.6885 38.648C14.1553 38.4873 13.6348 38.3132 13.1143 38.1258C10.4102 37.2285 7.33789 35.8089 5.11621 33.9474C3.83398 33.01 2.9707 31.5636 2.72949 29.9432C2.72949 27.4924 6.74121 24.3586 12.5303 22.2293C13.2539 21.9614 13.9902 21.7204 14.7266 21.4927C15.5898 24.3988 16.6309 27.2513 17.8369 30.0101C16.6182 32.8091 15.5645 35.7018 14.6885 38.648V38.648ZM29.4912 51.7723C27.3965 53.7946 24.9717 55.4016 22.3311 56.4998C20.9219 57.2096 19.2969 57.2765 17.8496 56.6739C15.8311 55.4418 14.9932 50.7144 16.1357 44.3531C16.2754 43.6031 16.4277 42.8532 16.6055 42.1166C19.4492 42.7594 22.3184 43.2014 25.2256 43.429C26.9014 45.9334 28.7422 48.3306 30.71 50.5804C30.3037 50.9956 29.8975 51.3974 29.4912 51.7723ZM32.6016 48.5181C31.3066 47.0449 30.0117 45.4111 28.7549 43.6567C29.9736 43.7103 31.2305 43.7371 32.5 43.7371C33.8076 43.7371 35.0898 43.7103 36.3594 43.6433C35.1914 45.3441 33.9346 46.9646 32.6016 48.5181V48.5181ZM49.1943 52.5357C49.0801 54.1695 48.3184 55.6962 47.0996 56.7274C45.0811 57.9595 40.7773 56.3525 36.1309 52.1473C35.5977 51.6652 35.0645 51.1429 34.5186 50.6072C36.4609 48.344 38.251 45.9468 39.876 43.429C42.7832 43.1746 45.6777 42.7059 48.5342 42.0229C48.6611 42.5719 48.7754 43.121 48.877 43.6567C49.499 46.5494 49.6006 49.5626 49.1943 52.5357V52.5357ZM51.5049 38.1391C51.1494 38.2597 50.7939 38.3802 50.4258 38.4873C49.5371 35.5679 48.4453 32.7153 47.1885 29.9432C48.4072 27.2112 49.4355 24.3988 50.2988 21.5195C50.959 21.7204 51.5938 21.9347 52.2031 22.1489C58.1191 24.2917 62.2705 27.479 62.2705 29.9164C62.2705 32.5412 57.8398 35.9294 51.5049 38.1391ZM32.5 23.8631C35.7119 23.8631 38.3145 26.6085 38.3145 29.9967C38.3145 33.3849 35.7119 36.1303 32.5 36.1303C29.2881 36.1303 26.6855 33.3849 26.6855 29.9967C26.6855 26.6085 29.2881 23.8631 32.5 23.8631Z" fill="#D38A20"/>
</svg>
