<svg width="60" height="60" viewBox="0 0 60 60" fill="none" xmlns="http://www.w3.org/2000/svg">
<path fill-rule="evenodd" clip-rule="evenodd" d="M16.4458 53.8746C29.728 55.7663 42.7742 57.6241 56.0796 59.5183C51.5464 51.6461 47.1298 43.9751 42.6779 36.2416L16.4458 53.8746V53.8746ZM59.8283 10.3001C58.6576 12.1342 57.4844 13.9668 56.3151 15.8019C52.2994 22.1038 48.2842 28.4057 44.2723 34.7107C44.0489 35.0617 43.7592 35.3402 44.0741 35.8815C47.9505 42.5587 51.7964 49.2555 55.6521 55.9464C56.2604 57.0032 56.8755 58.0559 57.6623 59.0698C58.4419 42.8306 59.2209 26.5908 60 10.3515L59.8283 10.3001V10.3001ZM6.90996 31.1196C7.09131 31.2987 7.54395 31.4031 7.75479 31.2946C11.4731 29.3884 15.2151 27.5245 18.8521 25.4613C20.0384 24.7889 20.9504 23.5833 21.9722 22.6057C25.3559 19.3688 28.7342 16.1253 32.1111 12.8812C32.3176 12.682 32.5623 12.4893 32.6856 12.2381C33.8984 9.76535 35.0905 7.28 36.3246 4.72302C34.853 4.14595 33.4579 3.58149 32.0453 3.06797C31.8538 2.99836 31.5521 3.13658 31.3446 3.25714C28.0751 5.16239 24.7441 6.96625 21.5786 9.04401C19.9948 10.0837 18.7046 11.6156 17.3022 12.9499C15.042 15.1018 12.7846 17.2587 10.5572 19.448C9.96623 20.0291 9.42751 20.6929 8.96714 21.3921C7.44384 23.7059 5.966 26.053 4.42046 28.4668C5.28415 29.3985 6.06949 30.2893 6.90996 31.1196V31.1196ZM20.4997 27.9563C18.65 36.1074 16.8114 44.2127 14.9114 52.5843C23.8205 46.5962 32.5241 40.7462 41.1701 34.9356C34.2897 32.6127 27.4314 30.2969 20.4997 27.9563ZM57.5574 10.3787C50.0299 11.6908 42.6823 12.971 35.2399 14.2679C37.7749 20.7 40.259 27.0029 42.8138 33.4849C47.7566 25.7373 52.6016 18.145 57.5574 10.3787V10.3787ZM20.8102 26.2891C27.5886 28.5843 34.2321 30.8341 41.0686 33.1494C38.5297 26.6977 36.078 20.4715 33.5754 14.1136C29.3126 18.1788 25.1136 22.184 20.8102 26.2891ZM7.18996 35.8729C4.78605 41.8671 2.46387 47.6575 0.0996187 53.5523C4.6434 53.4121 9.0479 53.2764 13.6038 53.1362C11.4649 47.3795 9.36803 41.7359 7.18996 35.8729V35.8729ZM13.7633 49.0366L13.9307 48.9983C15.5521 41.966 17.1968 34.9821 18.8521 27.6748C15.1595 29.6769 11.637 31.5862 8.01834 33.5484C9.86516 38.5555 11.8343 43.8374 13.7633 49.0366V49.0366ZM54.8329 9.23822C52.6766 8.64248 50.5203 8.04473 48.363 7.45302C45.2622 6.60255 42.1591 5.76266 39.0602 4.90462C38.6729 4.79718 38.3929 4.72706 38.1651 5.21384C37.0698 7.55442 35.9406 9.87734 34.8279 12.2093C34.7935 12.2815 34.8008 12.3748 34.7742 12.5559C41.4893 11.4946 48.1594 10.4398 54.8285 9.38551L54.8329 9.23822ZM42.323 3.91441L59.898 8.986C58.8902 5.99016 57.9554 3.21224 56.994 0.355122L42.3486 3.7424L42.323 3.91441V3.91441ZM15.2533 55.225C13.0767 54.9632 10.842 55.2038 8.63443 55.2437C6.82098 55.2755 5.00754 55.3476 3.19409 55.4066C3.00742 55.4127 2.82124 55.452 2.63506 55.6619C17.6277 57.1076 32.6198 58.5533 47.612 60L47.6424 59.7912C42.8366 59.1066 38.0302 58.4221 33.2243 57.7381C27.2356 56.8851 21.257 55.9469 15.2533 55.225V55.225ZM0.396057 48.1564C2.32798 43.4803 4.25169 38.8011 6.19135 34.1285C6.38527 33.6599 6.37028 33.3416 5.99067 32.9643C5.17921 32.1587 4.4253 31.2906 3.5384 30.3281C2.33959 36.5024 1.17028 42.5239 0 48.5448L0.131052 48.6089C0.220515 48.459 0.329806 48.3173 0.396057 48.1564V48.1564ZM38.4736 2.68006C41.7316 1.80335 45.0369 1.11783 48.3228 0.353105C48.5356 0.303165 48.7436 0.230022 48.953 0.167472L48.9206 0C44.2921 0.649208 39.6642 1.29892 34.8027 1.98142C36.1282 2.58523 37.1496 3.03619 38.4736 2.68006Z" fill="#D38A20"/>
</svg>
